<?xml version="1.0" encoding="UTF-8"?>
<svg width="1474px" height="269px" viewBox="0 0 1474 269" version="1.1" xmlns="http://www.w3.org/2000/svg" xmlns:xlink="http://www.w3.org/1999/xlink">
    <!-- Generator: Sketch 61.2 (89653) - https://sketch.com -->
    <title>Illustration@2x</title>
    <desc>Created with Sketch.</desc>
    <g id="Register/Login2" stroke="none" stroke-width="1" fill="none" fill-rule="evenodd">
        <g id="Illustration">
            <g id="Master-Copy-5" transform="translate(959.000000, 30.000000)" fill="#DEE7EF" fill-rule="nonzero">
                <path d="M41,0 C18.368,0 0,18.368 0,41 C0,63.632 18.368,82 41,82 C63.632,82 82,63.632 82,41 C82,18.368 63.632,0 41,0 Z M45.1,13.53 L50.635,9.635 C58.097,11.931 64.452,16.851 68.593,23.329 L66.994,28.823 L61.459,30.709 L45.1,19.27 L45.1,13.53 Z M31.365,9.635 L36.9,13.53 L36.9,19.27 L20.541,30.709 L15.006,28.823 L13.407,23.329 C17.548,16.892 23.903,11.972 31.365,9.635 Z M20.828,61.951 L16.154,62.361 C11.193,56.621 8.2,49.159 8.2,41 C8.2,40.508 8.241,40.057 8.282,39.565 L12.382,36.572 L18.04,38.54 L24.026,56.334 L20.828,61.951 Z M51.25,72.119 C48.011,73.185 44.567,73.8 41,73.8 C37.433,73.8 33.989,73.185 30.75,72.119 L27.921,66.01 L30.545,61.5 L51.496,61.5 L54.12,66.051 L51.25,72.119 Z M50.307,53.3 L31.693,53.3 L26.158,36.818 L41,26.404 L55.883,36.818 L50.307,53.3 Z M65.846,62.361 L61.172,61.951 L57.933,56.334 L63.919,38.54 L69.618,36.613 L73.718,39.606 C73.759,40.057 73.8,40.508 73.8,41 C73.8,49.159 70.807,56.621 65.846,62.361 Z" id="Shape"></path>
            </g>
            <polygon id="Fill-1" fill="#F0F4F6" points="994 182 1446 182 1446 112 994 112"></polygon>
            <polygon id="Fill-28" fill="#D4E0EB" points="994 239 1122 239 1122 182 994 182"></polygon>
            <polygon id="Fill-29" fill="#E6EDF2" points="1122 239 1251 239 1251 182 1122 182"></polygon>
            <polygon id="Fill-30" fill="#F4F9FC" points="1251 239 1380 239 1380 182 1251 182"></polygon>
            <polygon id="Fill-32" fill="#E6EDF2" points="1122 239 994 239 994 112"></polygon>
            <g id="Master" transform="translate(1067.000000, 112.000000)" fill="#D4E0EB" fill-rule="nonzero">
                <g id="Group">
                    <path d="M52.611,0 C43.149,0 34.257,3.89298462 27.759,10.2043385 C25.878,4.30587692 20.577,0 14.25,0 C6.384,0 0,6.60627692 0,14.7461538 C0,22.8860308 6.384,29.4923077 14.25,29.4923077 C15.447,29.4923077 16.587,29.3153538 17.727,29.0204308 C17.442,30.4950462 17.214,32.0286462 17.157,33.6212308 C16.131,55.3275692 33.972,73.0229538 55.233,70.6045846 C69.768,68.9530154 81.909,57.2740615 84.816,42.4689231 C85.671,38.2810154 85.671,34.2110769 85.158,30.3180923 C84.645,26.7790154 87.324,23.6528308 90.801,23.6528308 L114,23.6528308 L114,0 L52.611,0 Z M14.25,17.6953846 C12.654,17.6953846 11.4,16.3977231 11.4,14.7461538 C11.4,13.0945846 12.654,11.7969231 14.25,11.7969231 C15.846,11.7969231 17.1,13.0945846 17.1,14.7461538 C17.1,16.3977231 15.846,17.6953846 14.25,17.6953846 Z M51.3,53.0861538 C41.838,53.0861538 34.2,45.1822154 34.2,35.3907692 C34.2,25.5993231 41.838,17.6953846 51.3,17.6953846 C60.762,17.6953846 68.4,25.5993231 68.4,35.3907692 C68.4,45.1822154 60.762,53.0861538 51.3,53.0861538 Z" id="Shape"></path>
                    <ellipse id="Oval" cx="51.3" cy="35.3907692" rx="11.4" ry="11.7969231"></ellipse>
                </g>
            </g>
            <g id="Group-2" transform="translate(1265.000000, 30.000000)" fill="#DEE7EF">
                <path d="M116,104.5 C116,110.849917 110.849917,116 104.5,116 C98.1500833,116 93,110.849917 93,104.5 C93,98.1500833 98.1500833,93 104.5,93 C110.849917,93 116,98.1500833 116,104.5" id="Fill-34"></path>
                <path d="M104.5,80 C90.98972,80 80,90.98972 80,104.5 C80,118.01028 90.98972,129 104.5,129 C118.01028,129 129,118.01028 129,104.5 C129,90.98972 118.01028,80 104.5,80 M104.5,139 C85.4776857,139 70,123.522314 70,104.5 C70,85.4776857 85.4776857,70 104.5,70 C123.522314,70 139,85.4776857 139,104.5 C139,123.522314 123.522314,139 104.5,139" id="Fill-35"></path>
                <path d="M104,56 C77.5328,56 56,77.9814 56,105 C56,132.0186 77.5328,154 104,154 C130.4672,154 152,132.0186 152,105 C152,77.9814 130.4672,56 104,56 M46,104.5 C46,72.2431 72.0188,46 104,46 C135.9812,46 162,72.2431 162,104.5 C162,136.7569 135.9812,163 104,163 C72.0188,163 46,136.7569 46,104.5 Z" id="Fill-36"></path>
                <path d="M104.5,33 C65.0745135,33 33,65.0745135 33,104.5 C33,143.925486 65.0745135,176 104.5,176 C143.925486,176 176,143.925486 176,104.5 C176,65.0745135 143.925486,33 104.5,33 M104.5,186 C59.5605119,186 23,149.439488 23,104.5 C23,59.5605119 59.5605119,23 104.5,23 C149.439488,23 186,59.5605119 186,104.5 C186,149.439488 149.439488,186 104.5,186" id="Fill-37"></path>
                <path d="M104.5,10 C52.3919286,10 10,52.3919286 10,104.5 C10,156.608071 52.3919286,199 104.5,199 C156.608071,199 199,156.608071 199,104.5 C199,52.3919286 156.608071,10 104.5,10 M0,104.5 C0,46.8798611 46.8779259,0 104.5,0 C162.122074,0 209,46.8798611 209,104.5 C209,162.120139 162.122074,209 104.5,209 C46.8779259,209 0,162.120139 0,104.5 Z" id="Fill-38"></path>
            </g>
            <polygon id="Fill-20-Copy" fill="#DEE7EF" points="86 29 959 29 959 22 86 22"></polygon>
            <polygon id="Fill-23-Copy" fill="#DEE7EF" points="119 63 959 63 959 55 119 55"></polygon>
            <polygon id="Fill-23-Copy-3" fill="#DEE7EF" points="182 112 959 112 959 104 182 104"></polygon>
            <polygon id="Fill-23-Copy-4" fill="#DEE7EF" points="182 95 959 95 959 87 182 87"></polygon>
            <polyline id="Fill-23-Copy-2" fill="#DEE7EF" points="107 46 959 46 959 38 107 38"></polyline>
            <polygon id="Fill-3-Copy" fill="#D4E0EB" points="0 269 137 269 137 132 0 132"></polygon>
            <path d="M137,269 C61.4576972,269 0,207.542303 0,132 L70.3853211,132 C70.3853211,168.732339 100.268917,198.614679 137,198.614679 C173.731083,198.614679 203.614679,168.732339 203.614679,132 L274,132 C274,207.542303 212.542303,269 137,269" id="Fill-6-Copy" fill="#F0F4F6"></path>
            <polygon id="Fill-16-Copy" fill="#E6EDF2" points="200 135 338 135 338 0"></polygon>
            <polygon id="Fill-32-Copy" fill="#E6EDF2" transform="translate(913.500000, 67.000000) scale(-1, 1) translate(-913.500000, -67.000000) " points="959 112 868 112 868 22"></polygon>
            <path d="M137,199 C174.554889,199 205,168.554889 205,131 C205,93.4451111 174.554889,63 137,63 L137,199 Z" id="Fill-39-Copy" fill="#E6EDF2"></path>
            <polygon id="Fill-2-Copy" fill="#F0F4F6" points="338 268 338 135 470 135"></polygon>
            <g id="Master-Copy-6" transform="translate(259.000000, 163.000000)" fill="#D4E0EB" fill-rule="nonzero">
                <path d="M39.5,0 C17.696,0 0,17.696 0,39.5 C0,61.304 17.696,79 39.5,79 C61.304,79 79,61.304 79,39.5 C79,17.696 61.304,0 39.5,0 Z M14.2595,58.381 C10.27,53.1275 7.9,46.61 7.9,39.5 C7.9,32.39 10.27,25.8725 14.2595,20.619 C19.987,24.9245 23.7,31.7975 23.7,39.5 C23.7,47.2025 19.987,54.0755 14.2595,58.381 Z M39.5,71.1 C32.0345,71.1 25.1615,68.493 19.75,64.148 C26.9785,58.3415 31.6,49.4935 31.6,39.5 C31.6,29.5065 26.9785,20.6585 19.75,14.852 C25.1615,10.507 32.0345,7.9 39.5,7.9 C46.9655,7.9 53.8385,10.507 59.25,14.852 C52.0215,20.6585 47.4,29.5065 47.4,39.5 C47.4,49.4935 52.0215,58.3415 59.25,64.148 C53.8385,68.493 46.9655,71.1 39.5,71.1 Z M64.7405,58.381 C59.013,54.0755 55.3,47.2025 55.3,39.5 C55.3,31.7975 59.013,24.9245 64.7405,20.619 C68.73,25.8725 71.1,32.39 71.1,39.5 C71.1,46.61 68.73,53.1275 64.7405,58.381 Z" id="Shape"></path>
            </g>
            <g id="Master-Copy-8" transform="translate(8.000000, 17.000000)" fill="#DEE7EF" fill-rule="nonzero">
                <path d="M57.5,0 C25.76,0 0,25.76 0,57.5 C0,89.24 25.76,115 57.5,115 C89.24,115 115,89.24 115,57.5 C115,25.76 89.24,0 57.5,0 Z M18.5725,33.0625 C23.575,38.065 27.025,44.505 28.2325,51.75 L11.9025,51.75 C12.765,44.965 15.1225,38.64 18.5725,33.0625 Z M11.9025,63.25 L28.2325,63.25 C27.025,70.495 23.575,76.935 18.5725,81.9375 C15.1225,76.36 12.765,70.035 11.9025,63.25 Z M51.75,103.0975 C41.8025,101.8325 32.8325,97.3475 25.9325,90.7925 C33.4075,83.6625 38.525,74.06 39.8475,63.25 L51.75,63.25 L51.75,103.0975 Z M51.75,51.75 L39.8475,51.75 C38.4675,40.94 33.4075,31.28 25.875,24.15 C32.8325,17.595 41.8025,13.1675 51.75,11.9025 L51.75,51.75 Z M103.0975,51.75 L86.7675,51.75 C87.975,44.505 91.425,38.065 96.4275,33.0625 C99.8775,38.64 102.235,44.965 103.0975,51.75 Z M63.25,11.9025 C73.1975,13.1675 82.1675,17.595 89.125,24.15 C81.5925,31.28 76.5325,40.94 75.1525,51.75 L63.25,51.75 L63.25,11.9025 Z M63.25,103.0975 L63.25,63.25 L75.1525,63.25 C76.5325,74.06 81.5925,83.6625 89.0675,90.7925 C82.1675,97.3475 73.1975,101.8325 63.25,103.0975 Z M96.4275,81.9375 C91.425,76.9925 88.0325,70.495 86.7675,63.25 L103.0975,63.25 C102.235,70.035 99.8775,76.36 96.4275,81.9375 Z" id="Shape"></path>
            </g>
            <path d="M994,239 C994,168.859837 937.587878,112 868,112 L868,239 L994,239 Z" id="Oval-Copy" fill="#F1F6F7" transform="translate(931.000000, 175.500000) scale(-1, -1) translate(-931.000000, -175.500000) "></path>
            <g id="Group-4" transform="translate(939.000000, 137.000000)" fill="#E9F0F4">
                <circle id="Oval" cx="5.5" cy="5.5" r="5.5"></circle>
                <circle id="Oval-Copy-4" cx="5.5" cy="23.5" r="5.5"></circle>
                <circle id="Oval-Copy-3" cx="23.5" cy="5.5" r="5.5"></circle>
                <circle id="Oval-Copy-5" cx="24.5" cy="23.5" r="5.5"></circle>
            </g>
        </g>
    </g>
</svg>